<svg width="78" height="27" viewBox="0 0 78 27" fill="none" xmlns="http://www.w3.org/2000/svg">
<path d="M0.349288 21.7936L3.15773 20.1579C4.39222 21.9685 5.99704 22.8738 7.97221 22.8738C8.93922 22.8738 9.70049 22.6886 10.256 22.3183C10.8321 21.9274 11.1201 21.413 11.1201 20.7752C11.1201 20.2608 10.8835 19.8082 10.4103 19.4172C9.95767 19.0263 9.47416 18.7383 8.9598 18.5531C8.44543 18.3474 7.67388 18.0799 6.64514 17.7507C6.45997 17.689 6.32624 17.6478 6.24394 17.6272C5.50325 17.3804 4.87572 17.1437 4.36135 16.9174C3.86756 16.6705 3.34291 16.3516 2.78739 15.9607C2.23187 15.5492 1.81009 15.0451 1.52205 14.4485C1.234 13.8312 1.08998 13.1214 1.08998 12.319C1.08998 10.7553 1.74837 9.50025 3.06515 8.55381C4.38193 7.60737 6.01762 7.13416 7.97221 7.13416C9.43302 7.13416 10.8115 7.52508 12.1077 8.30691C13.4039 9.06818 14.3709 10.0455 15.0088 11.2388L12.4163 12.8128C11.2024 11.1462 9.73135 10.3129 8.00307 10.3129C7.05664 10.3129 6.32624 10.5084 5.81187 10.8993C5.31808 11.2697 5.07118 11.7635 5.07118 12.3807C5.07118 12.8951 5.28721 13.358 5.71928 13.7695C6.17193 14.1604 6.63486 14.4485 7.10808 14.6336C7.58129 14.8188 8.24997 15.0554 9.11411 15.3435C9.34043 15.4052 9.50503 15.4566 9.6079 15.4978C13.2702 16.6705 15.1013 18.44 15.1013 20.806C15.1013 22.2668 14.4841 23.5116 13.2496 24.5403C12.0357 25.5485 10.3074 26.0526 8.0648 26.0526C6.33652 26.0526 4.79342 25.672 3.43549 24.9107C2.09814 24.1494 1.0694 23.1104 0.349288 21.7936ZM18.4962 25.4971V0.282783H22.3848V25.4971H18.4962ZM29.8534 20.4974C29.8534 21.1558 30.1106 21.7113 30.625 22.164C31.1599 22.596 31.8594 22.8121 32.7236 22.8121C33.9581 22.8121 35.0074 22.4006 35.8715 21.5776C36.7562 20.7546 37.1986 19.6744 37.1986 18.3371V16.7014C36.2521 16.9277 35.1102 17.1437 33.7729 17.3495C31.1599 17.761 29.8534 18.8103 29.8534 20.4974ZM25.9031 20.8369C25.9031 17.4832 28.3926 15.436 33.3717 14.6954C35.1822 14.4279 36.4579 14.181 37.1986 13.9547V12.9979C37.1986 12.1338 36.8899 11.4548 36.2727 10.961C35.6555 10.4673 34.8325 10.2204 33.8037 10.2204C31.8491 10.2204 30.162 11.0228 28.7424 12.6276L26.366 10.5907C27.2919 9.50025 28.3926 8.65668 29.6682 8.06002C30.9644 7.44278 32.3224 7.13416 33.742 7.13416C36.3962 7.13416 38.289 7.78226 39.4206 9.07846C40.5522 10.3541 41.118 12.1441 41.118 14.4485V25.4971H37.322V23.275C36.9517 24.0363 36.3036 24.6947 35.3777 25.2502C34.4724 25.7851 33.4025 26.0526 32.1681 26.0526C30.2135 26.0526 28.6806 25.5691 27.5696 24.6021C26.4586 23.6351 25.9031 22.38 25.9031 20.8369ZM44.1117 16.6088C44.1117 13.7489 44.8729 11.4548 46.3955 9.72657C47.9386 7.99829 49.924 7.13416 52.3518 7.13416C54.1213 7.13416 55.6129 7.6691 56.8268 8.73898C58.0407 9.80887 58.802 11.0331 59.1106 12.4116L55.7775 13.3374C55.5306 12.5556 55.1088 11.8869 54.5122 11.3314C53.9155 10.7553 53.2057 10.4673 52.3827 10.4673C51.0453 10.4673 49.996 11.0536 49.2348 12.2264C48.4941 13.3992 48.1237 14.86 48.1237 16.6088C48.1237 18.5428 48.5249 20.0448 49.3273 21.1147C50.1298 22.1845 51.1482 22.7195 52.3827 22.7195C53.288 22.7195 54.0801 22.4109 54.7591 21.7936C55.4586 21.1558 55.9421 20.4357 56.2096 19.6333L59.5427 20.59C59.1518 22.0302 58.2979 23.3059 56.9811 24.4169C55.6644 25.5074 54.1213 26.0526 52.3518 26.0526C49.924 26.0526 47.9386 25.1987 46.3955 23.491C44.8729 21.7628 44.1117 19.4687 44.1117 16.6088ZM62.4746 25.4971V0.282783H66.3632V14.7879L72.6899 7.68967H77.597L71.0234 14.9423L77.9982 25.4971H73.4306L68.4927 17.689L66.3632 20.0345V25.4971H62.4746Z" fill="#C4C4C4"/>
</svg>
